<?xml version="1.0" encoding="utf-8"?>
<!-- Generator: Adobe Illustrator 23.0.1, SVG Export Plug-In . SVG Version: 6.00 Build 0)  -->
<svg version="1.1" id="Слой_1" xmlns="http://www.w3.org/2000/svg" xmlns:xlink="http://www.w3.org/1999/xlink" x="0px" y="0px"
	 viewBox="0 0 595.28 841.89" style="enable-background:new 0 0 595.28 841.89;" xml:space="preserve">
<path d="M171.03,33.32c-28.53-0.92-106.87-0.04-110.19,0c-3.83,0.04-6.92,3.17-6.92,7v178.49c-11.26-0.13-18.6-0.25-18.87-0.25
	c-0.04,0-0.07,0-0.11,0c-3.82,0-6.94,3.06-7,6.89c-0.06,3.87,3.02,7.05,6.89,7.11c1.06,0.02,8.31,0.13,19.08,0.26v26.07H34.94
	c-3.87,0-7,3.13-7,7s3.13,7,7,7h18.97v76.39c0,3.87,3.13,7,7,7s7-3.13,7-7v-76.39H180.8c3.87,0,7-3.13,7-7s-3.13-7-7-7H67.92v-25.92
	c32.77,0.33,81.14,0.59,103.72-0.42c24.4-1.09,44.62-7.2,60.12-18.17c23.73-16.79,35.76-44.2,35.76-81.47
	C267.51,43.39,193.66,34.05,171.03,33.32z M171.01,218.56c-22.01,0.98-70.39,0.72-103.09,0.4V47.24
	c20.24-0.2,79.33-0.68,102.66,0.07c24.94,0.8,82.93,10.76,82.93,85.6C253.51,187.3,225.76,216.12,171.01,218.56z"/>
</svg>
